<?xml version="1.0" standalone="no"?>
<!DOCTYPE svg PUBLIC "-//W3C//DTD SVG 20010904//EN"
 "http://www.w3.org/TR/2001/REC-SVG-20010904/DTD/svg10.dtd">
<svg version="1.0" xmlns="http://www.w3.org/2000/svg"
 width="1354.000000pt" height="1354.000000pt" viewBox="0 0 1354.000000 1354.000000"
 preserveAspectRatio="xMidYMid meet">
<metadata>
Created by potrace 1.14, written by Peter Selinger 2001-2017
</metadata>
<g transform="translate(0.000000,1354.000000) scale(0.100000,-0.100000)"
fill="#000000" stroke="none">
<path d="M11128 13016 c0 -6 -2 -25 -3 -43 0 -18 -4 -35 -7 -39 -4 -3 -3 -16
2 -28 4 -13 5 -27 2 -32 -9 -12 -55 -12 -64 1 -5 7 -8 6 -8 -1 0 -5 -19 -10
-42 -10 -42 1 -43 0 -43 -31 0 -17 -4 -35 -7 -39 -4 -4 -4 -14 0 -23 4 -9 7
-23 6 -31 -1 -8 -2 -19 -3 -25 -1 -6 -59 -9 -156 -8 -113 1 -155 -2 -157 -10
0 -7 -2 -26 -3 -44 0 -18 -4 -35 -7 -39 -4 -3 -3 -16 2 -28 4 -13 5 -27 2 -32
-9 -12 -55 -12 -64 1 -5 6 -8 6 -8 -2 0 -7 -13 -9 -40 -6 -43 6 -42 7 -45 -54
0 -18 -4 -35 -7 -39 -4 -3 -3 -16 2 -28 4 -13 5 -27 2 -32 -9 -12 -55 -12 -64
1 -5 7 -8 6 -8 0 0 -6 -19 -11 -42 -10 -36 0 -43 -3 -43 -20 0 -11 -4 -23 -10
-27 -7 -5 -6 -8 0 -8 6 0 10 -15 9 -32 -1 -18 -2 -42 -3 -53 -1 -18 -7 -20
-79 -18 l-79 2 1 -79 c1 -81 -3 -89 -39 -80 -12 3 -18 3 -67 -2 -21 -3 -40 0
-42 6 -3 8 -5 8 -5 0 -1 -6 -30 -9 -81 -7 -59 2 -80 0 -82 -9 0 -7 -2 -27 -3
-43 0 -17 -4 -36 -9 -43 -4 -6 -3 -12 2 -12 7 0 8 -18 3 -50 -2 -10 -61 -5
-61 5 0 6 -3 6 -8 0 -4 -6 -25 -10 -47 -10 -38 0 -40 -2 -40 -30 0 -16 -4 -33
-10 -37 -7 -5 -7 -8 0 -8 8 0 12 -48 6 -80 -1 -3 -35 -4 -76 -2 -54 1 -75 -1
-77 -10 0 -7 -2 -27 -3 -43 0 -17 -4 -36 -9 -43 -4 -6 -3 -12 2 -12 7 0 8 -18
3 -50 -2 -10 -61 -5 -61 5 0 6 -3 6 -8 0 -9 -14 -65 -13 -74 0 -5 7 -8 6 -8 0
0 -7 -32 -10 -85 -9 -85 2 -85 2 -81 -22 3 -13 0 -24 -6 -24 -7 0 -7 -5 -1
-12 5 -7 8 -26 7 -43 -1 -16 -2 -37 -3 -45 -1 -12 -15 -15 -66 -14 -36 1 -71
4 -78 7 -10 4 -13 -9 -12 -52 1 -31 -2 -64 -7 -73 -4 -9 -4 -19 0 -22 9 -5 7
-114 -2 -123 -3 -3 -1 -13 4 -22 5 -10 6 -21 2 -27 -9 -12 -55 -12 -64 1 -5 6
-8 6 -8 -1 0 -7 -11 -11 -25 -10 -14 0 -25 5 -25 10 0 5 -6 3 -13 -3 -8 -6
-16 -8 -19 -5 -7 6 -11 -46 -7 -91 6 -70 6 -70 -80 -68 l-78 2 1 -79 2 -78
-38 -4 c-21 -2 -38 0 -38 5 0 4 -5 5 -12 1 -7 -4 -26 -8 -43 -8 -27 -1 -30 -4
-30 -31 0 -16 -4 -33 -10 -37 -7 -5 -7 -8 0 -8 6 0 10 -18 10 -40 1 -40 1 -40
-40 -41 -214 -4 -275 -3 -277 6 0 6 -2 19 -2 30 -1 11 -5 26 -9 33 -5 6 -5 12
0 12 4 0 8 16 8 35 0 28 -4 37 -20 40 -11 2 -114 4 -230 4 -115 0 -216 0 -223
0 -8 1 -11 11 -9 29 2 15 0 33 -6 40 -5 6 -6 12 -1 12 5 0 9 16 9 35 0 41 -10
46 -92 42 -31 -2 -53 2 -53 8 0 7 -3 7 -8 0 -9 -13 -145 -13 -154 0 -5 7 -8 7
-8 0 0 -6 -32 -10 -75 -10 -43 0 -75 4 -75 10 0 7 -3 7 -8 0 -9 -13 -145 -13
-154 0 -5 7 -8 7 -8 0 0 -6 -32 -10 -75 -10 -43 0 -75 4 -75 10 0 7 -3 7 -8 0
-9 -13 -145 -13 -154 0 -5 7 -8 7 -8 0 0 -6 -32 -10 -75 -10 -43 0 -75 4 -75
10 0 7 -3 7 -8 0 -9 -13 -145 -13 -154 0 -5 7 -8 7 -8 0 0 -6 -32 -10 -75 -10
-43 0 -75 4 -75 10 0 7 -3 7 -8 0 -9 -13 -145 -13 -154 0 -5 7 -8 7 -8 0 0 -6
-32 -10 -75 -10 -43 0 -75 4 -75 10 0 7 -3 7 -8 0 -9 -13 -145 -13 -154 0 -5
7 -8 7 -8 0 0 -6 -32 -10 -75 -10 -43 0 -75 4 -75 10 0 7 -3 7 -8 0 -9 -13
-145 -13 -154 0 -5 7 -8 7 -8 0 0 -6 -32 -10 -75 -10 -43 0 -75 4 -75 10 0 7
-3 7 -8 0 -9 -13 -145 -13 -154 0 -5 7 -8 6 -8 -1 0 -6 -28 -9 -80 -7 -44 2
-81 0 -81 -4 -1 -5 -3 -27 -4 -51 -1 -23 -5 -45 -8 -48 -4 -4 -2 -14 3 -23 5
-10 6 -21 2 -27 -9 -12 -55 -12 -64 1 -5 7 -8 7 -8 0 0 -6 -99 -10 -280 -9
-202 1 -280 -2 -282 -10 0 -6 -2 -25 -3 -41 0 -17 -4 -36 -9 -43 -4 -6 -3 -12
2 -12 7 0 8 -18 3 -50 -2 -10 -61 -5 -61 5 0 6 -3 6 -8 0 -9 -14 -65 -13 -74
0 -5 7 -8 6 -8 -1 0 -6 -28 -9 -80 -7 -44 2 -81 0 -81 -4 -1 -5 -3 -27 -4 -51
-1 -23 -5 -45 -8 -48 -4 -4 -2 -14 3 -23 5 -10 6 -21 2 -27 -9 -12 -55 -12
-64 1 -5 7 -8 7 -8 0 0 -8 -308 -12 -538 -6 -29 1 -33 4 -31 24 2 12 0 28 -4
35 -5 6 -4 12 0 12 16 0 9 80 -7 84 -8 3 -64 4 -125 4 -193 0 -187 -1 -184 25
2 12 0 28 -4 35 -5 6 -4 12 0 12 5 0 9 18 8 40 0 43 -7 49 -60 48 -105 -1
-106 -1 -102 35 2 17 0 40 -4 49 -5 9 -5 19 -1 22 5 3 8 15 7 28 -2 22 -6 23
-78 23 -66 0 -78 3 -83 18 -3 10 -3 21 0 24 3 4 1 12 -5 20 -6 7 -7 13 -2 13
5 0 9 18 8 40 0 43 -7 49 -60 48 -105 -1 -106 -1 -102 35 2 17 0 40 -4 49 -5
9 -5 19 -1 22 5 3 8 15 7 28 -2 23 -3 23 -151 25 -82 1 -155 2 -162 2 -8 1
-12 10 -11 24 2 12 0 28 -4 35 -5 6 -4 12 0 12 5 0 9 18 8 40 0 46 -5 48 -80
48 -88 0 -83 -4 -81 57 1 33 -2 55 -9 55 -6 0 -7 3 0 8 17 12 16 31 -3 36 -9
2 -35 5 -57 4 -97 0 -96 0 -92 30 2 15 0 33 -6 40 -5 6 -6 12 -1 12 5 0 9 16
9 35 0 44 1 44 -176 43 -75 0 -141 2 -147 6 -7 4 -8 15 -3 29 9 28 8 88 -3
106 -7 10 -5 12 4 6 8 -5 11 -4 7 2 -4 7 -59 11 -139 11 -203 0 -190 -1 -187
25 2 12 0 28 -4 35 -5 6 -4 12 0 12 16 0 9 80 -7 84 -8 2 -70 4 -137 4 -186 0
-175 -1 -172 25 2 12 0 28 -4 35 -5 6 -4 12 0 12 5 0 9 18 8 40 0 47 -6 50
-88 47 -32 -1 -57 2 -57 8 0 7 -3 7 -8 0 -6 -8 -144 -12 -162 -5 -3 1 -9 2
-14 1 -5 -1 -4 4 2 12 11 13 10 47 -4 69 -5 7 -3 8 5 3 10 -6 11 -3 2 14 -7
12 -8 21 -2 21 5 0 8 8 7 18 -3 16 -22 17 -239 18 -170 1 -237 -2 -239 -10 0
-6 -2 -25 -3 -41 0 -17 -4 -36 -9 -43 -4 -6 -3 -12 2 -12 7 0 8 -18 3 -50 -2
-10 -61 -5 -61 5 0 6 -3 6 -8 0 -4 -6 -25 -10 -47 -10 -38 0 -40 -2 -40 -30 0
-16 -4 -33 -10 -37 -6 -5 -6 -8 1 -8 12 0 12 -29 0 -48 -4 -7 -2 -12 4 -12 6
0 8 -4 5 -10 -7 -11 -2 -11 96 -13 65 0 66 -1 62 -26 -5 -31 -3 -72 5 -126 1
-6 35 -10 80 -9 l79 1 -4 -26 c-5 -33 -5 -41 0 -66 2 -11 0 -28 -5 -37 -5 -10
-5 -18 0 -18 7 0 8 -53 2 -70 -1 -3 -1 -9 0 -15 7 -27 5 -92 -3 -109 -7 -13
-6 -16 3 -11 9 6 9 2 1 -14 -7 -11 -8 -21 -3 -21 10 0 9 -56 -1 -66 -3 -4 -3
-14 2 -23 4 -9 6 -36 4 -61 -1 -25 -3 -49 -4 -55 0 -5 2 -19 4 -30 2 -11 0
-28 -5 -39 -7 -14 -7 -16 2 -11 9 6 9 2 1 -14 -7 -11 -8 -21 -3 -21 7 0 8 -53
2 -70 -1 -3 -1 -9 0 -15 7 -27 5 -92 -3 -109 -7 -13 -6 -16 3 -11 9 6 9 2 1
-14 -7 -11 -8 -21 -3 -21 10 0 9 -56 -1 -66 -3 -4 -1 -16 5 -28 6 -11 10 -23
9 -26 -2 -3 -7 -13 -12 -22 -5 -10 -6 -18 -1 -18 10 0 9 -56 -1 -66 -3 -4 -3
-14 1 -23 7 -13 8 -57 3 -81 -2 -9 -121 -5 -121 4 0 5 -6 3 -13 -3 -8 -6 -16
-8 -19 -5 -8 8 -10 -38 -5 -116 2 -25 -1 -53 -6 -64 -7 -13 -6 -16 3 -11 9 6
9 2 1 -14 -7 -11 -8 -21 -3 -21 5 0 8 -20 7 -45 -2 -28 2 -45 9 -46 6 -1 36
-1 66 -1 76 1 86 -3 85 -36 0 -15 -4 -32 -7 -37 -4 -6 -3 -17 2 -25 5 -9 5
-19 -2 -27 -7 -9 -7 -13 1 -13 7 0 9 -4 6 -10 -7 -11 -2 -11 96 -13 65 0 66
-1 62 -26 -2 -14 -4 -33 -3 -41 0 -8 1 -32 1 -52 -1 -41 -5 -40 84 -39 73 0
81 -4 79 -42 -1 -17 -3 -34 -4 -37 -1 -3 -1 -9 0 -15 6 -28 4 -77 -2 -82 -5
-2 -5 -9 -2 -15 10 -16 12 -70 2 -95 -4 -13 -4 -23 0 -23 10 0 9 -57 -1 -66
-3 -4 -1 -16 5 -28 6 -11 10 -23 9 -26 -2 -3 -7 -13 -12 -22 -5 -10 -6 -18 -1
-18 10 0 9 -56 -1 -66 -3 -4 -3 -14 2 -23 5 -9 7 -25 5 -36 -7 -45 2 -50 83
-50 l78 0 -3 -50 c-1 -27 -2 -62 -2 -77 0 -35 0 -119 0 -155 0 -16 1 -47 3
-70 2 -26 -1 -43 -7 -43 -7 0 -8 -3 -1 -8 9 -6 11 -30 6 -67 0 -6 -34 -10 -78
-10 l-78 0 0 -30 c0 -16 -4 -33 -10 -37 -6 -5 -6 -8 1 -8 12 0 12 -29 0 -48
-4 -7 -2 -12 4 -12 6 0 8 -4 5 -10 -7 -11 -2 -11 96 -13 65 0 66 -1 62 -26 -2
-14 -4 -30 -3 -36 0 -5 2 -30 3 -55 2 -25 -1 -53 -6 -64 -7 -13 -6 -16 3 -11
9 6 9 2 1 -14 -7 -11 -8 -21 -3 -21 5 0 8 -20 7 -45 -2 -28 2 -45 9 -46 6 0
72 -1 146 -1 74 0 142 -2 150 -4 16 -4 21 -49 8 -69 -4 -6 -3 -17 2 -25 5 -8
5 -22 -1 -32 -5 -10 -6 -18 -1 -18 10 0 9 -50 0 -66 -4 -5 -3 -16 1 -23 5 -7
6 -28 4 -47 -5 -38 -11 -36 94 -35 43 0 63 -4 67 -14 2 -7 0 -16 -7 -19 -9 -3
-8 -5 1 -5 9 -1 10 -6 3 -19 -5 -10 -6 -24 -1 -32 4 -7 4 -24 0 -36 -11 -28 9
-37 93 -39 31 -1 61 -3 65 -4 10 -1 8 -113 -2 -130 -4 -6 -3 -11 2 -11 7 0 9
-53 2 -70 -1 -3 -1 -9 0 -15 1 -5 4 -27 5 -47 l2 -38 -46 -1 c-25 -1 -61 0
-79 1 -33 2 -34 1 -37 -55 0 -17 -4 -36 -9 -43 -4 -7 -2 -12 4 -12 7 0 8 -6 1
-18 -5 -10 -6 -24 -2 -30 8 -14 7 -99 -2 -108 -3 -3 -2 -17 3 -30 7 -17 6 -24
-3 -25 -69 -5 -117 -3 -117 4 0 5 -6 4 -13 -2 -8 -6 -16 -8 -19 -5 -5 4 -9
-25 -8 -61 0 -20 0 -62 0 -77 0 -7 1 -32 3 -55 2 -26 -1 -43 -7 -43 -7 0 -8
-3 -1 -8 13 -9 14 -72 2 -72 -6 0 -6 -5 0 -12 5 -7 8 -38 6 -68 -4 -68 -4 -66
0 -117 2 -26 -1 -43 -7 -43 -7 0 -8 -3 -1 -8 13 -9 14 -72 2 -72 -6 0 -6 -5 0
-12 5 -7 8 -38 6 -68 -4 -68 -4 -66 0 -117 2 -26 -1 -43 -7 -43 -7 0 -8 -3 -1
-8 9 -6 11 -30 6 -67 0 -6 -31 -10 -68 -10 -38 0 -71 5 -75 10 -5 7 -8 6 -8
-1 0 -6 -28 -9 -80 -7 -59 2 -80 0 -82 -9 0 -7 -2 -27 -3 -43 0 -17 -4 -36 -9
-43 -4 -6 -3 -12 2 -12 7 0 8 -18 3 -50 -2 -10 -61 -5 -61 5 0 6 -3 6 -8 0 -4
-6 -25 -10 -47 -10 -38 0 -40 -2 -40 -30 0 -16 -4 -33 -10 -37 -6 -5 -6 -8 1
-8 12 0 12 -29 0 -48 -4 -7 -2 -12 4 -12 6 0 8 -4 5 -10 -7 -11 -2 -11 96 -13
65 0 66 -1 62 -26 -2 -14 -4 -33 -3 -41 0 -8 1 -32 1 -52 -1 -23 4 -38 12 -39
6 0 80 -1 163 -1 l151 -1 -4 -26 c-2 -14 -4 -33 -3 -41 0 -8 1 -32 1 -52 -1
-23 4 -38 12 -39 6 0 77 -2 157 -3 80 -2 148 -4 151 -5 3 0 4 -29 3 -63 -4
-95 -5 -94 81 -91 41 1 77 -3 80 -8 4 -5 1 -9 -5 -9 -6 0 -8 -5 -3 -12 11 -19
12 -38 2 -38 -6 0 -7 -6 -2 -12 10 -18 10 -61 -1 -73 -5 -6 -68 -9 -157 -8
-110 2 -149 -1 -151 -10 0 -7 -2 -26 -3 -42 0 -17 -4 -36 -9 -43 -4 -6 -3 -12
2 -12 7 0 8 -18 3 -50 -2 -10 -61 -5 -61 5 0 7 -3 7 -8 0 -4 -6 -58 -10 -126
-10 -115 0 -119 -1 -127 -23 -5 -13 -5 -21 0 -18 5 3 7 -16 5 -42 -5 -77 -4
-77 83 -76 l78 1 0 -48 c0 -27 -4 -49 -8 -49 -5 0 -5 -6 0 -13 4 -6 8 -16 9
-22 0 -5 2 -14 2 -20 1 -6 82 -9 224 -8 123 1 230 0 240 -3 17 -5 18 -20 5
-41 -5 -7 -4 -13 1 -13 5 0 8 -17 6 -38 -5 -64 -1 -68 68 -65 87 2 94 -1 92
-40 -1 -17 -3 -34 -4 -37 -1 -3 -1 -9 0 -15 13 -62 3 -70 -84 -70 -63 0 -69
-2 -77 -23 -5 -13 -5 -21 0 -18 5 3 7 -16 5 -42 -5 -76 -4 -77 83 -77 43 0 81
5 85 10 5 7 8 7 8 0 0 -6 27 -9 67 -8 66 2 98 -11 70 -29 -9 -6 -9 -8 1 -8 9
0 10 -5 3 -18 -5 -10 -6 -24 -2 -31 5 -7 7 -26 5 -42 -2 -18 1 -29 9 -30 6 0
44 -1 82 -1 l70 -1 0 -46 c0 -25 -4 -49 -10 -53 -6 -5 -5 -8 3 -8 7 0 10 -5 7
-10 -3 -6 -4 -18 -1 -28 5 -14 16 -17 68 -15 35 1 70 0 78 -3 16 -4 21 -49 8
-69 -4 -6 -3 -17 1 -24 4 -7 6 -23 3 -37 -3 -16 0 -24 9 -25 8 0 118 -1 244
-2 l230 -2 0 -40 c0 -22 -3 -48 -8 -57 -4 -9 -3 -19 3 -23 5 -3 7 -12 3 -20
-6 -18 -28 -16 242 -17 121 -1 225 -3 230 -5 11 -4 13 -102 2 -119 -3 -5 -2
-16 3 -23 6 -11 73 -14 329 -15 208 -1 321 3 321 9 0 7 3 7 8 0 9 -13 145 -13
154 0 5 7 8 7 8 0 0 -6 27 -9 67 -8 66 2 98 -11 70 -29 -9 -6 -9 -8 1 -8 9 0
10 -5 3 -18 -5 -10 -6 -24 -1 -32 5 -8 4 -22 -1 -32 -7 -12 -6 -18 1 -18 6 0
8 -4 5 -10 -8 -12 -37 -11 325 -14 168 -2 308 -4 311 -4 3 -1 4 -36 3 -77 -2
-54 0 -75 9 -76 16 -1 2770 -1 2827 0 l46 1 -2 79 -1 80 163 -2 c102 -1 166 2
168 8 3 6 5 6 5 -1 1 -11 64 -10 83 2 6 4 8 3 5 -2 -6 -11 45 -13 53 -2 3 3 5
40 4 81 l-1 75 238 -2 c132 0 239 1 240 4 5 33 4 50 -4 50 -6 0 -6 5 -1 13 5
6 9 31 8 53 l0 42 128 -2 c70 0 128 3 128 7 0 4 8 3 18 -2 29 -15 46 3 47 51
0 24 -4 46 -10 50 -6 5 -6 8 2 8 7 0 10 10 7 24 -4 23 -3 24 76 22 44 0 80 1
81 4 5 33 4 50 -4 50 -6 0 -6 5 -1 12 5 7 9 32 8 54 l0 41 208 -1 c114 0 208
3 208 7 0 4 8 3 18 -2 29 -15 46 3 47 51 0 24 -4 46 -10 50 -6 5 -6 8 2 8 7 0
10 10 7 24 -4 24 -4 24 81 22 49 -1 87 3 89 9 3 6 5 7 5 0 1 -8 285 -11 587
-6 l40 1 0 48 c-1 26 -5 50 -11 54 -6 5 -6 8 2 8 7 0 10 10 7 24 -4 22 -1 24
28 22 18 -1 39 2 46 7 7 6 12 6 12 0 0 -4 17 -7 38 -5 l38 4 -2 78 -1 79 116
-1 c224 0 208 -3 206 37 0 19 -4 37 -7 41 -4 3 -4 13 -1 21 3 8 6 24 7 36 1
22 2 22 236 22 131 0 238 4 242 9 3 5 2 20 -2 32 -5 13 -6 25 -2 28 4 2 7 24
6 49 l-1 45 78 -2 c77 -1 77 -1 81 26 3 15 0 32 -6 38 -6 6 -6 10 0 10 5 0 10
18 9 40 0 43 -7 49 -60 48 -16 0 -47 0 -68 1 l-37 1 3 50 c3 30 0 51 -7 54 -7
3 -7 5 1 5 7 1 10 11 7 25 l-4 23 155 0 c85 0 158 3 162 7 11 11 10 96 -2 96
-7 0 -7 3 0 8 6 4 10 16 10 27 0 18 7 20 78 20 42 0 78 3 78 8 5 28 4 54 -2
67 -3 8 -3 24 1 35 4 11 3 26 -2 33 -6 7 -7 12 -1 12 11 0 10 50 -1 68 -4 7
-3 12 1 12 16 0 9 80 -7 84 -8 3 -73 4 -145 4 -71 0 -137 1 -146 1 -12 1 -16
10 -15 34 2 17 -2 38 -7 45 -6 7 -6 12 0 12 11 0 10 61 -1 78 -3 6 -2 13 2 16
10 6 9 36 -2 54 -4 6 -3 12 2 12 5 0 7 17 5 38 -4 41 -4 59 0 150 1 34 0 62
-4 62 -3 0 -5 10 -3 23 1 12 3 22 4 22 1 0 2 20 3 45 l1 45 -49 2 c-28 1 -65
2 -83 2 l-32 1 3 50 c3 30 0 51 -7 54 -7 3 -7 5 1 5 7 1 10 11 7 25 -4 24 -3
24 76 23 65 -2 80 1 81 13 0 8 2 25 3 38 2 13 -1 25 -5 28 -5 2 -5 12 -2 20 3
9 6 25 7 37 1 22 4 22 158 22 143 0 158 2 159 18 1 9 2 23 3 30 1 6 -1 20 -6
29 -4 9 -4 19 1 23 5 3 8 18 7 33 -3 27 -4 27 -80 27 -84 0 -86 2 -82 68 1 21
-2 37 -8 37 -7 0 -8 3 -1 8 6 4 10 16 10 27 0 18 -7 20 -78 20 -66 0 -78 3
-83 18 -3 10 -3 21 0 24 3 4 1 12 -5 20 -6 7 -7 13 -2 13 16 0 10 80 -7 84 -8
3 -64 5 -125 4 -60 0 -127 1 -147 1 l-38 1 3 50 c2 28 0 50 -5 50 -5 0 -6 5
-2 12 11 18 12 68 2 68 -5 0 -6 6 -1 13 11 17 11 60 0 75 -6 7 -6 12 0 12 16
0 11 29 -6 34 -9 3 -44 4 -79 3 -69 -2 -72 1 -68 66 1 20 -2 37 -6 37 -5 0 -6
5 -2 12 11 18 12 68 1 68 -5 0 -4 6 2 14 8 10 9 16 1 21 -6 3 -7 12 -3 18 11
17 11 60 0 75 -6 7 -6 12 0 12 5 0 9 20 9 45 -1 25 -4 45 -9 45 -4 0 -3 10 4
21 9 17 8 20 -2 14 -8 -6 -10 -4 -4 5 11 18 13 130 2 130 -4 0 -5 5 -1 12 11
17 12 68 2 68 -5 0 -5 8 -1 18 11 21 10 63 0 80 -5 6 -5 12 0 12 10 0 10 131
0 147 -4 7 -3 14 3 18 23 14 -3 24 -63 23 -98 0 -97 0 -93 25 2 12 -1 28 -6
35 -6 6 -6 12 -1 12 5 0 9 18 8 40 0 43 -7 49 -60 48 -16 0 -47 0 -68 1 l-37
1 3 50 c3 30 0 51 -7 54 -7 3 -7 5 1 5 7 1 10 11 7 25 l-4 23 155 0 c85 0 158
3 162 7 11 11 10 96 -2 96 -7 0 -7 3 0 8 6 4 10 16 10 27 0 19 7 20 158 20
174 0 157 -7 161 65 1 14 -3 31 -9 39 -7 11 -7 13 3 7 9 -6 11 0 7 22 l-5 29
68 -1 c81 -2 106 7 92 33 -5 10 -6 21 -3 25 10 10 10 126 0 126 -5 0 -3 8 4
17 12 14 12 16 0 8 -10 -6 -12 -4 -7 4 11 17 14 121 4 121 -4 0 -4 10 0 23 5
12 7 45 6 74 l-1 52 78 -2 c73 -2 78 -1 82 21 2 12 -1 22 -7 22 -7 0 -8 3 -1
8 10 7 11 67 3 140 -3 18 -2 35 1 37 3 2 6 23 5 47 l0 43 -76 1 c-88 1 -100 6
-89 37 4 12 6 46 5 74 l-1 53 78 -3 79 -2 1 30 c1 17 2 53 2 82 l0 52 78 -2
c69 -2 79 0 80 16 1 9 2 23 3 30 1 6 -1 20 -6 29 -4 9 -4 19 1 23 8 4 8 44 1
65 -1 3 -2 19 -1 35 1 17 3 56 4 88 2 34 -2 57 -8 57 -7 0 -7 3 0 8 13 9 15
62 3 62 -5 0 -4 10 3 21 8 16 8 20 -1 14 -9 -5 -9 -3 -2 11 5 11 7 28 5 39 -2
11 -4 25 -4 30 6 92 5 135 -4 135 -7 0 -7 3 0 8 13 9 15 62 3 62 -5 0 -4 10 3
21 8 16 8 20 -1 14 -9 -5 -10 -2 -3 11 11 22 11 64 0 82 -5 6 -4 12 0 12 5 0
9 18 8 40 0 43 -7 49 -60 48 -16 0 -47 0 -68 1 l-37 1 3 50 c3 30 0 51 -7 54
-7 3 -7 5 1 5 7 1 10 11 7 25 -4 23 -2 24 54 24 117 0 118 1 102 42 -1 3 -1
10 0 15 8 30 4 125 -5 125 -7 0 -7 3 0 8 13 9 15 62 3 62 -5 0 -4 10 3 21 9
17 8 20 -2 14 -8 -6 -10 -4 -4 5 13 20 13 130 0 130 -7 0 -7 3 0 8 6 4 10 16
10 27 0 18 7 20 78 20 42 0 77 2 78 5 5 26 3 90 -3 90 -5 0 -4 10 3 21 9 17 8
20 -2 14 -8 -6 -10 -4 -4 5 11 18 13 130 2 130 -4 0 -5 5 -1 12 11 18 12 68 1
68 -5 0 -4 7 3 15 10 12 10 15 -1 15 -9 0 -10 3 -4 8 6 4 10 28 10 53 l0 46
-73 -1 c-78 -1 -85 3 -87 44 -1 14 -5 32 -10 39 -6 10 -4 12 4 6 10 -6 11 -3
2 14 -7 12 -8 21 -2 21 5 0 8 8 7 18 -2 14 -14 17 -67 19 -35 0 -71 1 -80 2
-13 1 -16 12 -15 56 1 33 -2 55 -9 55 -6 0 -7 3 0 8 12 8 13 101 1 120 -4 6
-3 12 2 12 10 0 8 62 -2 78 -3 6 -2 13 2 16 10 6 9 36 -2 54 -4 6 -3 12 2 12
5 0 7 17 5 38 -4 43 -4 45 0 95 2 22 -1 37 -7 37 -7 0 -8 3 -1 8 6 4 10 16 10
27 0 20 -7 20 -318 21 -229 1 -317 -1 -319 -10z"/>
<path d="M12088 4696 c0 -6 -2 -25 -3 -43 0 -18 -4 -35 -7 -39 -4 -3 -3 -16 2
-28 4 -13 5 -27 2 -32 -9 -12 -55 -12 -64 1 -5 7 -8 6 -8 -1 0 -5 -19 -10 -42
-10 -42 1 -43 0 -43 -31 0 -17 -4 -35 -7 -39 -4 -4 -4 -14 0 -23 4 -9 7 -23 6
-31 -1 -8 -2 -19 -3 -25 0 -6 -34 -10 -78 -10 -71 0 -78 -2 -78 -20 0 -11 -4
-23 -10 -27 -7 -5 -6 -8 1 -8 6 0 9 -15 7 -37 -5 -52 -5 -54 0 -86 2 -15 0
-30 -5 -33 -4 -3 -6 -10 -2 -15 10 -17 12 -59 2 -65 -4 -3 -6 -10 -2 -15 10
-17 12 -59 2 -65 -4 -3 -5 -10 -1 -16 3 -7 7 -28 8 -47 1 -20 3 -38 4 -41 0
-3 36 -5 78 -5 l76 0 1 -52 c1 -29 -2 -53 -5 -53 -11 0 -4 -29 9 -42 6 -6 42
-12 79 -13 37 -1 71 -3 74 -4 3 0 4 -29 3 -63 -4 -93 -4 -93 68 -91 35 1 71 0
80 -3 19 -5 20 -24 3 -36 -7 -5 -6 -8 1 -8 6 0 9 -18 8 -42 -4 -71 -2 -74 68
-71 85 2 94 -1 93 -36 0 -17 -4 -33 -7 -37 -4 -4 -3 -14 2 -24 5 -10 7 -20 4
-23 -3 -3 -3 -14 0 -24 5 -15 16 -18 68 -16 35 1 71 0 80 -3 19 -5 20 -24 3
-36 -7 -5 -6 -8 1 -8 6 0 9 -18 8 -42 -4 -72 -3 -73 81 -73 41 0 75 2 76 5 5
32 4 50 -4 50 -6 0 -6 5 -1 13 5 6 9 31 8 53 l0 42 78 -2 c72 -1 78 1 79 19 1
11 2 34 3 50 1 17 -3 33 -9 37 -6 5 -6 8 2 8 7 0 10 10 7 24 -4 22 -1 24 28
22 18 -1 43 2 56 6 13 4 21 4 18 0 -6 -9 47 -10 54 0 3 3 5 40 4 82 l-1 75 78
-2 79 -2 1 30 c1 17 2 55 2 86 1 42 4 56 14 52 7 -3 42 -6 78 -7 71 -1 65 -6
69 64 1 14 -3 31 -9 39 -7 11 -7 13 3 7 9 -6 11 0 7 22 -5 29 -3 30 28 28 17
-1 42 2 55 6 13 4 21 5 19 0 -3 -4 8 -7 24 -7 16 0 29 2 30 5 6 32 3 108 -4
118 -5 7 -6 12 -1 12 5 0 8 26 7 58 -4 71 -4 66 0 132 2 30 0 63 -6 74 -7 13
-6 16 3 11 9 -6 9 -2 1 14 -7 12 -8 21 -2 21 5 0 8 8 7 18 -2 14 -15 17 -72
19 -38 0 -73 2 -79 3 -5 1 -14 2 -19 1 -5 -1 -4 4 2 12 11 13 10 47 -4 69 -5
7 -3 8 5 3 10 -6 11 -3 2 14 -7 12 -8 21 -2 21 5 0 8 8 7 18 -3 17 -6 18 -129
21 -34 1 -38 4 -36 24 2 12 0 28 -4 35 -5 6 -4 12 0 12 16 0 9 80 -7 84 -8 2
-81 4 -161 4 l-146 0 1 -78 2 -78 -38 -4 c-21 -2 -40 1 -42 7 -3 6 -5 6 -5 -1
-1 -6 -18 -9 -41 -7 -38 3 -40 2 -36 -22 3 -14 0 -25 -6 -25 -6 0 -7 -5 -2
-12 5 -7 9 -24 8 -38 -4 -70 2 -65 -76 -65 -77 0 -90 7 -83 44 2 11 -1 21 -6
21 -6 0 -7 6 -2 13 4 6 8 27 8 44 1 39 -7 42 -88 40 -33 -1 -61 1 -64 6 -2 4
-10 4 -16 0 -9 -5 -9 -3 0 8 12 15 11 48 -3 71 -5 7 -3 8 5 3 10 -6 11 -3 2
14 -7 12 -8 21 -2 21 5 0 8 8 7 18 -3 15 -19 17 -159 18 -112 2 -157 -1 -159
-10z"/>
<path d="M10803 3414 c-2 -7 -2 -18 2 -24 3 -5 0 -10 -7 -10 -8 0 -9 -3 -3 -8
12 -9 13 -83 1 -97 -5 -6 -40 -9 -78 -8 -63 3 -69 1 -77 -20 -5 -12 -6 -26 -2
-32 9 -13 8 -56 -2 -72 -5 -7 -4 -13 1 -13 10 0 9 -50 -2 -68 -4 -7 -3 -12 2
-12 4 0 7 -17 5 -37 -5 -52 -5 -54 0 -86 2 -15 0 -30 -4 -33 -5 -3 -5 -13 -1
-22 5 -9 7 -32 5 -49 -3 -37 -8 -35 94 -34 57 0 86 -10 65 -23 -5 -3 -6 -20
-4 -38 2 -18 4 -48 4 -65 1 -18 4 -33 7 -34 3 0 38 -2 76 -3 39 -2 72 -4 75
-4 10 -3 5 -132 -4 -132 -6 0 -5 -5 1 -11 7 -7 46 -12 89 -13 l77 -1 1 -52 c1
-29 -3 -53 -8 -53 -6 0 -5 -5 1 -11 6 -6 9 -18 6 -25 -3 -8 0 -14 6 -15 38 -3
58 -2 69 5 6 4 12 3 12 -1 0 -5 17 -7 38 -5 l38 4 -1 46 c0 26 -4 50 -10 54
-6 5 -6 8 2 8 7 0 10 10 7 24 -4 22 -1 24 28 22 18 -1 43 2 56 6 13 4 21 4 18
0 -6 -9 47 -10 54 0 3 3 5 40 4 82 l-1 75 78 -2 c73 -2 79 0 80 18 1 11 2 35
3 53 1 17 -3 32 -9 32 -6 0 -7 3 0 8 6 4 10 16 10 27 0 18 7 20 78 20 42 0 77
2 78 5 5 26 3 90 -3 90 -5 0 -4 10 3 21 8 16 8 20 -1 14 -9 -5 -9 -3 -2 11 5
11 7 28 5 39 -2 11 -4 25 -4 30 6 92 5 135 -4 135 -5 0 -4 4 3 9 18 11 18 12
3 40 -10 17 -10 21 -1 16 9 -6 9 -2 1 14 -7 12 -8 21 -2 21 5 0 8 8 7 18 -3
17 -6 18 -129 21 -37 1 -37 2 -34 36 3 21 0 35 -7 35 -7 0 -7 3 -1 8 6 4 10
22 11 40 0 41 -1 41 -181 39 -133 -2 -140 -3 -140 -22 0 -11 -4 -23 -10 -27
-7 -5 -6 -8 0 -8 13 0 14 -81 1 -95 -5 -6 -27 -9 -50 -8 -23 1 -56 2 -74 2
-31 1 -32 2 -29 36 3 21 0 35 -7 35 -7 0 -7 3 -1 8 6 4 10 22 11 40 0 41 0 41
-179 40 -106 0 -140 -3 -144 -14z"/>
</g>
</svg>
